
<svg xmlns="http://www.w3.org/2000/svg" version="1.1" xmlns:xlink="http://www.w3.org/1999/xlink" preserveAspectRatio="none" x="0px" y="0px" width="143px" height="40px" viewBox="0 0 143 40">
<defs>
<g id="logo_text_0_Layer3_0_FILL">
<path fill="#148DFF" stroke="none" d="
M 211.1 105.5
Q 211.1 104.15 210.15 103.15
L 108 1
Q 107 0 105.6 0 104.2 0 103.25 1
L 1.05 103.15
Q 0 104.15 0 105.5 0 106.9 1.05 107.95
L 103.2 210.05
Q 104.15 211.05 105.55 211.05 106.95 211.05 107.95 210.05
L 210.15 107.95
Q 211.1 106.9 211.1 105.5 Z"/>
</g>

<g id="logo_text_0_Layer2_0_FILL">
<path fill="#7BD100" stroke="none" d="
M 201.05 62.4
Q 201.05 61 200.1 60
L 149 8.9
Q 147.95 7.9 146.6 7.9 145.2 7.9 144.2 8.9
L 8 145.1
Q 7 146.05 7 147.45 7 148.85 8 149.9
L 59.1 200.95
Q 60.1 201.95 61.45 201.95 62.85 201.95 63.9 200.95
L 200.1 64.8
Q 201.05 63.75 201.05 62.4 Z"/>
</g>

<g id="logo_text_0_Layer1_0_FILL">
<path fill="#FF8300" stroke="none" d="
M 299.05 102.55
Q 298.05 101.55 296.65 101.55
L 104 101.55
Q 102.6 101.55 101.65 102.55 100.65 103.5 100.65 104.9 100.65 106.3 101.65 107.3
L 237.8 243.45
Q 238.75 244.4 240.15 244.4 241.55 244.4 242.55 243.45 242.7 243.25 242.9 243.05 300 185.75 300 104.9 300 103.5 299.05 102.55 Z"/>
</g>

<g id="logo_text_0_Layer0_0_FILL">
<path fill="#333333" stroke="none" d="
M 443.45 157.4
Q 442.95 158.05 442.95 158.65
L 442.95 162.35
Q 442.95 162.8 443.45 163.3 443.85 163.85 444.45 163.85
L 459.5 163.85 443.35 182.65
Q 442.75 183.35 442.7 183.75 442.5 184.2 442.5 184.75
L 442.5 188.45
Q 442.5 189.1 442.75 189.55 443.35 189.95 444 189.95
L 469.9 189.95
Q 470.5 189.95 470.85 189.55 471.4 189.1 471.4 188.45
L 471.4 184.75
Q 471.4 184.15 470.85 183.65 470.4 183.25 469.9 183.25
L 453.3 183.25 469.1 164.55
Q 469.5 164.05 469.75 163.5 470.1 163.05 470.1 162.55
L 470.1 158.65
Q 470.1 158.05 469.55 157.4 469.1 157.15 468.6 157.15
L 444.45 157.15
Q 443.85 157.15 443.45 157.4
M 436.45 158.65
Q 436.45 158.05 436 157.4 435.45 157.15 434.95 157.15
L 410.85 157.15
Q 410.2 157.15 409.8 157.4 409.35 158.05 409.35 158.65
L 409.35 162.35
Q 409.35 162.8 409.8 163.3 410.2 163.85 410.85 163.85
L 425.85 163.85 409.75 182.65
Q 409.1 183.35 409.05 183.75 408.85 184.2 408.85 184.75
L 408.85 188.45
Q 408.85 189.1 409.1 189.55 409.75 189.95 410.35 189.95
L 436.25 189.95
Q 436.9 189.95 437.2 189.55 437.75 189.1 437.75 188.45
L 437.75 184.75
Q 437.75 184.15 437.2 183.65 436.75 183.25 436.25 183.25
L 419.65 183.25 435.45 164.55
Q 435.85 164.05 436.15 163.5 436.45 163.05 436.45 162.55
L 436.45 158.65
M 400.45 157.15
L 395.1 157.15
Q 394.5 157.15 394.15 157.4 393.6 158.05 393.6 158.65
L 393.6 188.45
Q 393.6 189.1 394.15 189.55 394.5 189.95 395.1 189.95
L 400.45 189.95
Q 401.25 189.95 401.6 189.55 402.15 189.1 402.15 188.45
L 402.15 158.65
Q 402.15 158.05 401.6 157.4 401.25 157.15 400.45 157.15
M 363.1 161.1
L 363.1 158.65
Q 363.1 158.05 362.5 157.4 362.2 157.15 361.4 157.15
L 356.4 157.15
Q 355.85 157.15 355.4 157.4 354.9 158.05 354.9 158.65
L 354.9 200.45
Q 354.9 201.2 355.4 201.6 355.85 201.95 356.4 201.95
L 361.9 201.95
Q 362.5 201.95 363.1 201.6 363.4 201.2 363.4 200.45
L 363.4 186.05
Q 366.75 190.6 373 190.6 379.5 190.6 382.95 186.55 386.3 182.4 386.65 175.8 386.65 175.05 386.65 173.55 386.65 172.05 386.65 171.25 386.3 164.55 382.95 160.5 379.5 156.45 373 156.45 366.45 156.45 363.1 161.1
M 363.4 173.75
Q 363.4 172.05 363.4 171.35 363.6 167.95 365.3 165.6 367.05 163.3 370.65 163.3 377.4 163.3 378 171.65 378 172.25 378 173.55 378 174.85 378 175.4 377.4 183.75 370.65 183.75 367.2 183.75 365.3 181.6 363.6 179.35 363.4 176.15 363.4 175.4 363.4 173.75
M 400.7 143.95
L 394.9 143.95
Q 394.2 143.95 393.75 144.45 393.4 144.9 393.4 145.6
L 393.4 150.3
Q 393.4 150.8 393.75 151.35 394.2 151.8 394.9 151.8
L 400.7 151.8
Q 401.35 151.8 401.8 151.35 402.35 150.8 402.35 150.3
L 402.35 145.6
Q 402.35 144.9 401.8 144.45 401.35 143.95 400.7 143.95
M 564.55 158.5
Q 564.55 158.7 564.8 159.35
L 576.95 188.05 572 199.65
Q 571.8 200.3 571.8 200.7 571.8 201.2 572.2 201.6 572.45 201.95 573.1 201.95
L 578.05 201.95
Q 579.35 201.95 579.85 200.7
L 597.7 159.35
Q 598.1 158.7 598.1 158.3 598.1 157.85 597.5 157.4 597.2 157.15 596.65 157.15
L 591.6 157.15
Q 590.5 157.15 589.7 158.3
L 581.3 178.95 572.85 158.3
Q 572.25 157.15 571.15 157.15
L 565.95 157.15
Q 565.5 157.15 565.1 157.4 564.55 158.05 564.55 158.5
M 486.1 164.55
Q 486.8 163.85 488.1 163.05 489.3 162.35 491.5 162.35 494.5 162.35 495.9 163.65 497.3 165 497.3 167.75
L 497.3 169.1 488.55 170.35
Q 482.5 171.35 479 174.05 475.6 176.65 475.6 180.85 475.6 183.55 477.1 185.8 478.7 188.05 481.4 189.35 484 190.6 487.2 190.6 490.95 190.6 493.5 189.35 496 188.05 497.4 186.05
L 497.4 188.45
Q 497.4 189.1 497.95 189.55 498.4 189.95 498.9 189.95
L 504.25 189.95
Q 505.05 189.95 505.4 189.55 505.8 189.1 505.8 188.45
L 505.8 168.65
Q 505.8 163.15 502.3 159.75 498.9 156.45 491.5 156.45 486.95 156.45 483.9 158.05 480.7 159.55 479.2 161.4 477.7 163.45 477.7 164.95 477.7 165.6 478.1 166.05 478.6 166.3 479.05 166.3
L 484 166.3
Q 484.8 166.3 485 165.6 485.3 165.35 486.1 164.55
M 497.3 174.45
L 497.3 175.65
Q 497.3 180 495 182.25 492.9 184.55 489.3 184.55 487.05 184.55 485.4 183.35 483.8 182.25 483.8 180.3 483.8 176.55 490.95 175.4
L 497.3 174.45
M 535.35 145.1
L 529.75 145.1
Q 529.25 145.1 528.75 145.5 528.2 146 528.2 146.6
L 528.2 188.45
Q 528.2 189.1 528.75 189.55 529.25 189.95 529.75 189.95
L 534.85 189.95
Q 535.6 189.95 535.95 189.55 536.45 189.1 536.45 188.45
L 536.45 186.05
Q 539.9 190.6 546.5 190.6 552.95 190.6 556.3 186.55 559.75 182.4 559.95 175.55 559.95 174.85 559.95 173.55 559.95 172.25 559.95 171.5 559.75 164.8 556.3 160.65 552.95 156.45 546.5 156.45 540.45 156.45 536.85 160.65
L 536.85 146.6
Q 536.85 146 536.45 145.5 535.95 145.1 535.35 145.1
M 538.75 165.4
Q 540.65 163.3 544.1 163.3 550.85 163.3 551.45 171.65 551.45 172.25 551.45 173.55 551.45 174.85 551.45 175.4 550.85 183.75 544.1 183.75 540.55 183.75 538.75 181.5 537.05 179.05 536.85 175.65 536.85 175.05 536.85 173.3 536.85 171.65 536.85 170.8 537.05 167.75 538.75 165.4
M 762.55 157.15
L 756.85 157.15
Q 756.3 157.15 755.85 157.4 755.4 158.05 755.4 158.65
L 755.4 176.45
Q 755.4 183.05 758.7 186.75 762.05 190.6 767.8 190.6 774.9 190.6 778.35 185.95
L 778.35 188.45
Q 778.35 189.1 778.8 189.55 779.2 189.95 779.95 189.95
L 785.15 189.95
Q 785.8 189.95 786.25 189.55 786.65 189.1 786.65 188.45
L 786.65 158.65
Q 786.65 158.05 786.25 157.4 785.8 157.15 785.15 157.15
L 779.4 157.15
Q 778.95 157.15 778.45 157.4 777.9 158.05 777.9 158.65
L 777.9 175.95
Q 777.9 179.55 776.05 181.75 774.15 183.75 770.85 183.75 764.1 183.75 764.1 175.95
L 764.1 158.65
Q 764.1 158.05 763.65 157.4 763.2 157.15 762.55 157.15
M 801.85 145.1
L 796.5 145.1
Q 796.05 145.1 795.55 145.5 794.95 146 794.95 146.6
L 794.95 188.45
Q 794.95 189.1 795.55 189.55 796.05 189.95 796.5 189.95
L 801.85 189.95
Q 802.6 189.95 802.95 189.55 803.5 189.1 803.5 188.45
L 803.5 146.6
Q 803.5 146 802.95 145.5 802.6 145.1 801.85 145.1
M 648.2 188.45
L 648.2 146.6
Q 648.2 146 647.85 145.5 647.55 145.1 646.7 145.1
L 641.3 145.1
Q 640.65 145.1 640.15 145.5 639.75 146 639.75 146.6
L 639.75 160.65
Q 636.1 156.45 630.05 156.45 623.75 156.45 620.3 160.65 616.7 164.8 616.5 171.5
L 616.5 175.55
Q 616.9 182.4 620.3 186.55 623.75 190.6 630.05 190.6 636.6 190.6 640.15 186.05
L 640.15 188.45
Q 640.15 189.1 640.55 189.55 641.05 189.95 641.65 189.95
L 646.7 189.95
Q 647.55 189.95 647.85 189.55 648.2 189.1 648.2 188.45
M 632.4 163.3
Q 635.9 163.3 637.75 165.4 639.6 167.75 639.75 170.8 639.95 171.65 639.95 173.3 639.95 175.05 639.75 175.65 639.6 179.25 637.8 181.5 636.1 183.75 632.4 183.75 625.7 183.75 625.3 175.4
L 625.3 171.65
Q 625.7 163.3 632.4 163.3
M 719.55 164.95
Q 719.55 165.6 719.85 166.05 720.4 166.3 720.9 166.3
L 725.9 166.3
Q 726.55 166.3 726.9 165.6 727.1 165.35 727.85 164.55 728.6 163.85 729.9 163.05 731.2 162.35 733.35 162.35 736.35 162.35 737.7 163.65 739.1 165 739.1 167.75
L 739.1 169.1 730.4 170.35
Q 724.3 171.35 720.85 174.05 717.4 176.65 717.4 180.85 717.4 183.55 718.9 185.8 720.5 188.05 723.2 189.35 725.9 190.6 729.05 190.6 732.8 190.6 735.3 189.35 737.9 188.05 739.2 186.05
L 739.2 188.45
Q 739.2 189.1 739.7 189.55 740.3 189.95 740.8 189.95
L 746.1 189.95
Q 746.8 189.95 747.2 189.55 747.65 189.1 747.65 188.45
L 747.65 168.65
Q 747.65 163.15 744.2 159.75 740.8 156.45 733.35 156.45 728.75 156.45 725.7 158.05 722.6 159.55 721.1 161.4 719.55 163.45 719.55 164.95
M 727.2 183.35
Q 725.6 182.25 725.6 180.3 725.6 176.55 732.8 175.4
L 739.1 174.45 739.1 175.65
Q 739.1 180 736.85 182.25 734.7 184.55 731.2 184.55 728.9 184.55 727.2 183.35
M 686.55 173.15
Q 686.55 165.55 682.45 161.05 678.45 156.45 670.85 156.45 663.55 156.45 659.35 161.05 655.1 165.55 655.1 173.4
L 655.35 175.05
Q 655.55 182.45 659.75 186.55 663.95 190.6 671 190.6 675.3 190.6 678.65 189.1 682 187.55 683.85 185.5 685.7 183.35 685.7 181.95 685.7 181.35 685.25 180.95 684.85 180.75 684.25 180.75
L 678.65 180.75
Q 677.95 180.75 677.55 180.85 677.35 180.95 676.65 181.75 674.55 184.65 670.85 184.65 667.65 184.65 665.9 182.4 664.15 180 664.1 176.55
L 664.1 175.95 685.05 175.95
Q 685.7 175.95 686.05 175.55 686.55 175.15 686.55 174.45
L 686.55 173.15
M 677.8 170.55
L 677.8 170.6 664.1 170.6 664.1 170.55
Q 664.1 166.7 665.85 164.55 667.55 162.35 670.85 162.35 674.05 162.35 675.95 164.55 677.8 166.7 677.8 170.55
M 709.2 143.2
Q 703 143.2 699.75 146 696.75 148.85 696.75 154.55
L 696.75 157.15 691.75 157.15
Q 690.95 157.15 690.6 157.4 690.2 158.05 690.2 158.65
L 690.2 162.35
Q 690.2 163.05 690.6 163.45 690.95 163.85 691.75 163.85
L 696.75 163.85 696.75 188.45
Q 696.75 189.1 697.15 189.55 697.65 189.95 698.25 189.95
L 703.6 189.95
Q 704.3 189.95 704.6 189.55 704.95 189.1 704.95 188.45
L 704.95 163.85 712.95 163.85
Q 713.6 163.85 714.15 163.45 714.45 163.05 714.45 162.35
L 714.45 158.65
Q 714.45 158.05 714.15 157.4 713.6 157.15 712.95 157.15
L 704.95 157.15 704.95 154.8
Q 704.95 152.3 706.2 151.15 707.15 150.05 709.55 150.05
L 713.6 150.05
Q 714.2 150.05 714.6 149.5 715.1 149.15 715.1 148.4
L 715.1 144.7
Q 715.1 144.1 714.6 143.7 714.2 143.2 713.6 143.2
L 709.2 143.2
M 823.05 145.5
Q 822.55 145.1 821.9 145.1
L 816.75 145.1
Q 816 145.1 815.6 145.5 815.25 146 815.25 146.6
L 815.25 157.15 810.2 157.15
Q 809.55 157.15 809.05 157.4 808.7 158.05 808.7 158.65
L 808.7 162.35
Q 808.7 163.05 809.05 163.45 809.55 163.85 810.2 163.85
L 815.25 163.85 815.25 178.05
Q 815.25 183.9 818.2 186.95 820.9 189.95 826.65 189.95
L 831.95 189.95
Q 832.7 189.95 833.1 189.55 833.5 189.1 833.5 188.45
L 833.5 184.55
Q 833.5 183.75 833.1 183.35 832.7 183.05 831.95 183.05
L 827.5 183.05
Q 825.35 183.05 824.5 181.6 823.45 180.25 823.45 177.45
L 823.45 163.85 831.4 163.85
Q 831.95 163.85 832.4 163.45 832.8 163.05 832.8 162.35
L 832.8 158.65
Q 832.8 158.05 832.4 157.4 831.95 157.15 831.4 157.15
L 823.45 157.15 823.45 146.6
Q 823.45 146 823.05 145.5
M 424.05 79.9
Q 424.2 76.75 424.2 71.2 424.2 65.7 424.05 62.45 423.65 47.3 414.2 39.2 404.85 31.1 387.9 31.1
L 357.8 31.1
Q 356.5 31.1 355.8 32.05 354.9 32.85 354.9 34.1
L 354.9 108.4
Q 354.9 109.55 355.8 110.45 356.65 111.3 357.8 111.3
L 388.45 111.3
Q 423 111.3 424.05 79.9
M 376.45 48.4
L 387.4 48.4
Q 394.55 48.4 398.2 51.8 401.95 55.35 402.25 62.65 402.45 65.85 402.45 71.05 402.45 76.35 402.25 79.7 401.95 87.25 398.55 90.7 395.15 94.15 387.9 94.15
L 376.45 94.15 376.45 48.4
M 491.2 87.05
Q 492.45 87.05 493.35 86.15 494.2 85.35 494.2 84.05
L 494.2 81.2
Q 494.2 72.4 490.85 65.45 487.45 58.55 480.6 54.55 473.85 50.65 463.95 50.65 450.35 50.65 442.35 58.3 434.3 66 433.85 79.55
L 433.85 83.1
Q 434.1 97.45 442.05 104.95 450.15 112.45 464.1 112.45 472.85 112.45 479.35 109.55 485.85 106.75 489.2 102.65 492.55 98.7 492.55 95.7 492.55 94.85 491.85 94.15 491.15 93.55 490.05 93.55
L 475.05 93.55
Q 473.65 93.55 473.05 93.85 472.45 94.15 471.45 95.25 469.9 97 468.25 98.05 466.65 99.2 463.8 99.2 459.65 99.2 457.3 96.05 455.05 92.85 454.9 87.75
L 454.9 87.05 491.2 87.05
M 457.25 66.6
Q 459.65 63.55 463.95 63.55 468.3 63.55 470.7 66.6 473.1 69.65 473.1 75.15
L 473.1 75.35 454.9 75.35 454.9 75.15
Q 454.9 69.65 457.25 66.6
M 546.15 26.55
L 537.1 26.55
Q 524.75 26.55 518.1 31.7 511.5 36.85 511.5 48.4
L 511.5 51.75 502.9 51.75
Q 501.65 51.75 500.75 52.55 499.95 53.4 499.95 54.6
L 499.95 64.45
Q 499.95 65.7 500.75 66.5 501.65 67.3 502.9 67.3
L 511.5 67.3 511.5 108.4
Q 511.5 109.7 512.35 110.5 513.2 111.3 514.5 111.3
L 528.5 111.3
Q 529.7 111.3 530.5 110.45 531.3 109.55 531.3 108.4
L 531.3 67.3 545.1 67.3
Q 546.3 67.3 547.15 66.5 548 65.7 548 64.45
L 548 54.6
Q 548 53.4 547.15 52.55 546.3 51.75 545.1 51.75
L 531.3 51.75 531.3 48.9
Q 531.3 45.45 532.9 43.85 534.35 42.15 538.05 42.15
L 546.15 42.15
Q 547.5 42.15 548.3 41.35 549.15 40.55 549.15 39.3
L 549.15 29.45
Q 549.15 28.15 548.3 27.35 547.5 26.55 546.15 26.55
M 639.8 37.85
Q 631.3 31.1 616.45 31.1
L 584.05 31.1
Q 582.75 31.1 582.05 32.05 581.15 32.85 581.15 34.1
L 581.15 108.4
Q 581.15 109.55 582.05 110.45 582.9 111.3 584.05 111.3
L 600.5 111.3
Q 601.8 111.3 602.6 110.45 603.45 109.55 603.45 108.4
L 603.45 83.65 616.45 83.65
Q 631.3 83.65 639.8 77.25 648.25 70.75 648.25 57.75 648.25 44.65 639.8 37.85
M 625.95 57.55
Q 625.95 62.45 623.25 64.9 620.6 67.3 615.9 67.3
L 603.05 67.3 603.05 47.65 615.9 47.65
Q 621.05 47.65 623.45 50.4 625.95 53.15 625.95 57.55
M 674.95 51.75
L 660.6 51.75
Q 659.5 51.75 658.6 52.55 657.8 53.4 657.8 54.6
L 657.8 108.4
Q 657.8 109.55 658.6 110.45 659.5 111.3 660.6 111.3
L 674.95 111.3
Q 676.2 111.3 677.1 110.5 677.9 109.7 677.9 108.4
L 677.9 54.6
Q 677.9 53.4 677.1 52.55 676.2 51.75 674.95 51.75
M 658.55 42.6
Q 659.35 43.55 660.6 43.55
L 674.95 43.55
Q 676.2 43.55 677.1 42.6 677.9 41.8 677.9 40.55
L 677.9 29.9
Q 677.9 28.65 677.1 27.75 676.2 26.95 674.95 26.95
L 660.6 26.95
Q 659.5 26.95 658.6 27.75 657.8 28.65 657.8 29.9
L 657.8 40.55
Q 657.8 41.8 658.55 42.6
M 740.4 68.4
Q 742 66.7 742 65
L 742 54.6
Q 742 53.4 741.25 52.55 740.4 51.75 739.2 51.75
L 692.55 51.75
Q 691.4 51.75 690.6 52.55 689.75 53.4 689.75 54.6
L 689.75 64.25
Q 689.75 65.4 690.6 66.25 691.4 67.05 692.55 67.05
L 716.95 67.05 690.55 95.15
Q 688.8 96.9 688.8 98.9
L 688.8 108.4
Q 688.8 109.55 689.65 110.45 690.55 111.3 691.65 111.3
L 741.6 111.3
Q 742.8 111.3 743.7 110.45 744.4 109.55 744.4 108.4
L 744.4 98.85
Q 744.4 97.6 743.7 96.8 742.8 95.95 741.6 95.95
L 714.85 95.95 740.4 68.4
M 756.45 51.75
Q 755.35 51.75 754.55 52.55 753.65 53.4 753.65 54.6
L 753.65 64.25
Q 753.65 65.4 754.55 66.25 755.35 67.05 756.45 67.05
L 780.9 67.05 754.45 95.15
Q 752.7 96.9 752.7 98.9
L 752.7 108.4
Q 752.7 109.55 753.6 110.45 754.45 111.3 755.6 111.3
L 805.55 111.3
Q 806.75 111.3 807.6 110.45 808.35 109.55 808.35 108.4
L 808.35 98.85
Q 808.35 97.6 807.6 96.8 806.75 95.95 805.55 95.95
L 778.75 95.95 804.35 68.4
Q 805.95 66.7 805.95 65
L 805.95 54.6
Q 805.95 53.4 805.2 52.55 804.35 51.75 803.1 51.75
L 756.45 51.75
M 835 69.4
Q 835.65 69.4 836.1 68.6 837.25 68.05 838.75 66.7 840.65 65.2 842.3 64.3 843.75 63.55 846.05 63.55 850.2 63.55 851.9 65.5 853.6 67.45 853.6 71.65
L 853.6 73.1 839.4 75.2
Q 828.1 77.1 821.6 81.9 815.15 86.8 815.15 94.55 815.15 99.5 817.9 103.65 820.8 107.75 825.75 110.1 830.75 112.45 836.8 112.45 843 112.45 847.45 110.25 851.9 108 854.45 104.4
L 854.45 108.4
Q 854.45 109.55 855.25 110.45 856.15 111.3 857.3 111.3
L 871.4 111.3
Q 872.6 111.3 873.45 110.45 874.2 109.55 874.2 108.4
L 874.2 73.75
Q 874.2 63.1 867.4 56.8 860.5 50.65 846.3 50.65 837.4 50.65 831.3 53.4 825.2 56.15 822.25 59.9 819.25 63.8 819.2 66.85 819.05 67.95 819.8 68.65 820.55 69.4 821.65 69.4
L 835 69.4
M 834.7 93.1
Q 834.7 88.05 844.35 86.2
L 853.85 84.65 853.85 86
Q 853.85 92.3 850.7 95.55 847.55 98.9 842.55 98.9 839.2 98.9 836.95 97.3 834.7 95.7 834.7 93.1 Z"/>
</g>
</defs>

<g transform="matrix( 0.16363525390625, 0, 0, 0.163665771484375, 0,0) ">
<g transform="matrix( 1, 0, 0, 1, 0,0) ">
<use xlink:href="#logo_text_0_Layer3_0_FILL"/>
</g>

<g transform="matrix( 1, 0, 0, 1, 0,0) ">
<use xlink:href="#logo_text_0_Layer2_0_FILL"/>
</g>

<g transform="matrix( 1, 0, 0, 1, 0,0) ">
<use xlink:href="#logo_text_0_Layer1_0_FILL"/>
</g>

<g transform="matrix( 1, 0, 0, 1, 0,0) ">
<use xlink:href="#logo_text_0_Layer0_0_FILL"/>
</g>
</g>
</svg>
