
<svg xmlns="http://www.w3.org/2000/svg" version="1.1" xmlns:xlink="http://www.w3.org/1999/xlink" preserveAspectRatio="none" x="0px" y="0px" width="510px" height="415px" viewBox="0 0 510 415">
<defs>
<g id="_______4_0_Layer0_0_FILL">
<path fill="#000000" stroke="none" d="
M 174.25 -5
Q 172.1841796875 -4.9947265625 170.7 -3.55
L -3.55 170.6
Q -5.0001953125 172.0935546875 -5 174.15 -4.994921875 176.2255859375 -3.55 177.7
L 34.65 215.85 8.35 242.1
Q 6.9052734375 243.5841796875 6.9 245.65 6.9052734375 247.7158203125 8.35 249.15
L 95.5 336.3
Q 96.9841796875 337.7947265625 99.05 337.8 101.1158203125 337.7947265625 102.55 336.3
L 128.85 310.05 170.65 351.85
Q 172.1494140625 353.30546875 174.2 353.3 176.25 353.3060546875 177.7 351.85
L 260.55 269.05 400.15 408.7
Q 401.6341796875 410.1947265625 403.7 410.2 405.7658203125 410.1947265625 407.2 408.7 407.5126953125 408.4392578125 407.75 408.1 504.996875 310.6623046875 505 173.1 504.9947265625 171.0341796875 503.5 169.55 502.0658203125 168.1052734375 500 168.1
L 349.4 168.1 310.15 128.85 334.75 104.1
Q 336.2447265625 102.6658203125 336.25 100.6 336.2447265625 98.5341796875 334.75 97.05
L 247.65 9.9
Q 246.2064453125 8.4498046875 244.15 8.45 242.075 8.454296875 240.6 9.9
L 215.9 34.6 177.75 -3.55
Q 176.3158203125 -4.9947265625 174.25 -5
M 219.15 45.5
Q 219.3421875 45.381640625 219.5 45.2
L 244.15 20.5 324.2 100.6 299.85 125
Q 299.723828125 125.1525390625 299.55 125.3
L 256.65 168.1 171.55 168.1
Q 169.4841796875 168.1052734375 168 169.55 166.5552734375 171.0341796875 166.55 173.1 166.5552734375 175.1658203125 168 176.6
L 208.1 216.7 99.05 325.75 18.95 245.65 219.15 45.5
M 174.25 7.05
L 208.9 41.7 41.75 208.8 7.05 174.1 174.25 7.05
M 270.85 168.1
L 303.1 135.9 335.3 168.1 270.85 168.1
M 264.35 258.75
Q 264.230078125 258.60625 264.05 258.45
L 218.65 213.15
Q 218.52265625 212.9990234375 218.35 212.85
L 183.6 178.1 494.95 178.1
Q 493.2587890625 306.207421875 403.6 398.05
L 264.35 258.75
M 253.45 262
L 174.2 341.25 135.9 302.95 215.15 223.75 253.45 262 Z"/>

<path fill="#FFFFFF" stroke="none" d="
M 174.2 341.25
L 253.45 262 215.15 223.75 135.9 302.95 174.2 341.25
M 264.05 258.45
Q 264.230078125 258.60625 264.35 258.75
L 403.6 398.05
Q 493.2587890625 306.207421875 494.95 178.1
L 183.6 178.1 218.35 212.85
Q 218.52265625 212.9990234375 218.65 213.15
L 264.05 258.45
M 303.1 135.9
L 270.85 168.1 335.3 168.1 303.1 135.9
M 208.9 41.7
L 174.25 7.05 7.05 174.1 41.75 208.8 208.9 41.7
M 219.5 45.2
Q 219.3421875 45.381640625 219.15 45.5
L 18.95 245.65 99.05 325.75 208.1 216.7 168 176.6
Q 166.5552734375 175.1658203125 166.55 173.1 166.5552734375 171.0341796875 168 169.55 169.4841796875 168.1052734375 171.55 168.1
L 256.65 168.1 299.55 125.3
Q 299.723828125 125.1525390625 299.85 125
L 324.2 100.6 244.15 20.5 219.5 45.2 Z"/>
</g>
</defs>

<g transform="matrix( 1, 0, 0, 1, 5,5) ">
<g transform="matrix( 1, 0, 0, 1, 0,0) ">
<use xlink:href="#_______4_0_Layer0_0_FILL"/>
</g>
</g>
</svg>
