
<svg xmlns="http://www.w3.org/2000/svg" version="1.1" xmlns:xlink="http://www.w3.org/1999/xlink" preserveAspectRatio="none" x="0px" y="0px" width="50px" height="40px" viewBox="0 0 50 40">
<defs>
<g id="logo_0_Layer2_0_FILL">
<path fill="#148DFF" stroke="none" d="
M 4.1 -107.85
Q 3.0998046875 -108.8501953125 1.65 -108.85 0.2 -108.8501953125 -0.85 -107.85
L -106.95 -1.8
Q -107.9501953125 -0.75 -107.95 0.7 -107.9501953125 2.1498046875 -106.95 3.15
L -0.9 109.2
Q 0.153125 110.246484375 1.6 110.25 3.0416015625 110.25078125 4.05 109.2
L 110.15 3.15
Q 111.1994140625 2.1484375 111.2 0.7 111.2037109375 -0.7431640625 110.15 -1.8
L 4.1 -107.85 Z"/>
</g>

<g id="logo_0_Layer1_0_FILL">
<path fill="#7BD100" stroke="none" d="
M 44.2 -100.65
Q 42.75 -100.6501953125 41.7 -99.65
L -99.7 41.75
Q -100.7001953125 42.8 -100.7 44.25 -100.7001953125 45.6998046875 -99.7 46.7
L -46.65 99.75
Q -45.6 100.8 -44.15 100.8 -42.7001953125 100.8 -41.7 99.75
L 99.7 -41.65
Q 100.75 -42.6501953125 100.75 -44.1 100.75 -45.55 99.7 -46.6
L 46.65 -99.65
Q 45.6498046875 -100.6501953125 44.2 -100.65 Z"/>
</g>

<g id="logo_0_Layer0_0_FILL">
<path fill="#FF8300" stroke="none" d="
M 202.45 -2.45
Q 201.4498046875 -3.45 200 -3.45
L 0 -3.45
Q -1.4498046875 -3.45 -2.5 -2.45 -3.5 -1.3998046875 -3.5 0.05 -3.5001953125 1.4998046875 -2.5 2.5
L 138.85 143.85
Q 139.9 144.9 141.35 144.9 142.7998046875 144.9 143.8 143.85 144.016015625 143.683984375 144.15 143.45 203.5021484375 84.0041015625 203.5 0.05 203.5 -1.3998046875 202.45 -2.45 Z"/>
</g>
</defs>

<g transform="matrix( 0.15411376953125, 0, 0, 0.154083251953125, 17.85,17.35) ">
<g transform="matrix( 1, 0, 0, 1, 0,0) ">
<use xlink:href="#logo_0_Layer2_0_FILL"/>
</g>

<g transform="matrix( 1, 0, 0, 1, 0,0) ">
<use xlink:href="#logo_0_Layer1_0_FILL"/>
</g>

<g transform="matrix( 1, 0, 0, 1, 0,0) ">
<use xlink:href="#logo_0_Layer0_0_FILL"/>
</g>
</g>
</svg>
